<?xml version="1.0" standalone="no"?>
<!DOCTYPE svg PUBLIC "-//W3C//DTD SVG 20010904//EN"
 "http://www.w3.org/TR/2001/REC-SVG-20010904/DTD/svg10.dtd">
<svg version="1.0" xmlns="http://www.w3.org/2000/svg"
 width="1254.000000pt" height="1254.000000pt" viewBox="0 0 1254.000000 1254.000000"
 preserveAspectRatio="xMidYMid meet">

<g transform="translate(0.000000,1254.000000) scale(0.100000,-0.100000)"
fill="#000000" stroke="none">
<path d="M3220 8384 c-159 -69 -158 -282 2 -349 33 -13 353 -15 3050 -15 2908
0 3014 1 3053 19 99 45 142 159 95 250 -24 48 -70 87 -118 101 -25 7 -1005 10
-3042 10 -2662 -1 -3009 -3 -3040 -16z"/>
<path d="M3215 6451 c-136 -63 -154 -243 -33 -327 l41 -29 3021 -3 c2123 -2
3032 0 3058 8 77 22 138 102 138 180 0 78 -62 158 -138 180 -25 7 -1005 10
-3042 10 -2900 0 -3006 -1 -3045 -19z"/>
<path d="M3230 4529 c-150 -60 -174 -256 -42 -340 l46 -29 3027 0 c2115 0
3036 3 3056 11 38 14 81 56 104 101 46 90 2 204 -96 249 -39 18 -144 19 -3055
18 -1957 0 -3024 -4 -3040 -10z"/>
</g>
</svg>
