<svg xmlns="http://www.w3.org/2000/svg" viewBox="0 0 2048 1743" role="img" aria-label="Logo ONU" preserveAspectRatio="xMidYMid meet">
  <path fill="#009fdd" fill-rule="evenodd" d="M 397 1569 L 410 1584 L 438 1610 L 471 1633 L 496 1646 L 524 1657 L 560 1666 L 581 1668 L 582 1669 L 595 1669 L 596 1670 L 624 1670 L 625 1669 L 647 1668 L 648 1667 L 654 1667 L 655 1666 L 661 1666 L 699 1657 L 742 1641 L 785 1618 L 864 1562 L 874 1556 L 906 1541 L 923 1536 L 933 1534 L 940 1534 L 941 1533 L 968 1533 L 969 1534 L 982 1535 L 984 1537 L 983 1538 L 971 1542 L 953 1551 L 951 1551 L 918 1568 L 881 1590 L 857 1606 L 804 1646 L 778 1668 L 750 1694 L 769 1714 L 792 1733 L 863 1662 L 910 1620 L 946 1592 L 971 1575 L 993 1562 L 1022 1548 L 1025 1548 L 1068 1570 L 1094 1587 L 1117 1604 L 1151 1632 L 1184 1662 L 1254 1733 L 1269 1722 L 1297 1695 L 1278 1676 L 1243 1646 L 1190 1606 L 1166 1590 L 1129 1568 L 1096 1551 L 1094 1551 L 1076 1542 L 1064 1538 L 1063 1537 L 1065 1535 L 1078 1534 L 1079 1533 L 1106 1533 L 1107 1534 L 1114 1534 L 1124 1536 L 1141 1541 L 1151 1545 L 1183 1562 L 1262 1618 L 1305 1641 L 1327 1650 L 1371 1663 L 1386 1666 L 1399 1667 L 1400 1668 L 1422 1669 L 1423 1670 L 1451 1670 L 1452 1669 L 1465 1669 L 1466 1668 L 1487 1666 L 1520 1658 L 1551 1646 L 1576 1633 L 1600 1617 L 1625 1596 L 1650 1569 L 1637 1577 L 1615 1588 L 1608 1590 L 1598 1595 L 1573 1603 L 1543 1609 L 1536 1609 L 1535 1610 L 1521 1610 L 1520 1611 L 1489 1610 L 1488 1609 L 1481 1609 L 1480 1608 L 1474 1608 L 1453 1604 L 1412 1592 L 1409 1590 L 1398 1587 L 1385 1581 L 1375 1578 L 1363 1572 L 1337 1562 L 1330 1558 L 1283 1539 L 1239 1524 L 1203 1515 L 1198 1515 L 1173 1510 L 1153 1509 L 1152 1508 L 1105 1508 L 1104 1509 L 1085 1510 L 1084 1511 L 1078 1511 L 1042 1518 L 1027 1523 L 1020 1523 L 1005 1518 L 1001 1518 L 981 1513 L 963 1511 L 962 1510 L 954 1510 L 953 1509 L 943 1509 L 942 1508 L 895 1508 L 894 1509 L 883 1509 L 882 1510 L 874 1510 L 873 1511 L 855 1513 L 819 1521 L 772 1536 L 717 1558 L 710 1562 L 703 1564 L 672 1578 L 623 1596 L 594 1604 L 573 1608 L 559 1609 L 558 1610 L 544 1610 L 543 1611 L 512 1610 L 511 1609 L 504 1609 L 474 1603 L 449 1595 L 430 1587 Z M 1820 1395 L 1796 1419 L 1767 1439 L 1743 1451 L 1728 1457 L 1702 1465 L 1664 1473 L 1634 1476 L 1633 1477 L 1600 1479 L 1599 1480 L 1586 1480 L 1585 1481 L 1570 1481 L 1569 1482 L 1520 1484 L 1519 1485 L 1507 1485 L 1506 1486 L 1477 1488 L 1476 1489 L 1443 1493 L 1418 1499 L 1394 1502 L 1393 1501 L 1394 1500 L 1405 1498 L 1430 1490 L 1447 1483 L 1464 1474 L 1487 1458 L 1508 1438 L 1530 1410 L 1553 1373 L 1574 1332 L 1576 1330 L 1606 1269 L 1573 1293 L 1536 1324 L 1482 1374 L 1415 1439 L 1395 1455 L 1368 1472 L 1348 1482 L 1328 1490 L 1287 1502 L 1262 1507 L 1256 1507 L 1270 1510 L 1295 1513 L 1303 1516 L 1334 1523 L 1338 1525 L 1393 1539 L 1397 1539 L 1406 1542 L 1410 1542 L 1419 1545 L 1444 1550 L 1449 1550 L 1474 1555 L 1498 1557 L 1499 1558 L 1510 1558 L 1511 1559 L 1529 1559 L 1530 1560 L 1570 1559 L 1571 1558 L 1580 1558 L 1581 1557 L 1602 1555 L 1639 1546 L 1658 1538 L 1691 1521 L 1723 1500 L 1752 1477 L 1775 1455 L 1802 1423 Z M 228 1397 L 245 1423 L 272 1455 L 295 1477 L 324 1500 L 356 1521 L 389 1538 L 408 1546 L 445 1555 L 466 1557 L 467 1558 L 476 1558 L 477 1559 L 493 1559 L 494 1560 L 536 1559 L 537 1558 L 548 1558 L 549 1557 L 573 1555 L 574 1554 L 580 1554 L 598 1550 L 603 1550 L 628 1545 L 637 1542 L 641 1542 L 650 1539 L 654 1539 L 713 1524 L 717 1522 L 744 1516 L 752 1513 L 777 1510 L 791 1507 L 785 1507 L 760 1502 L 719 1490 L 697 1481 L 679 1472 L 652 1455 L 632 1439 L 545 1355 L 511 1324 L 474 1293 L 441 1269 L 471 1330 L 473 1332 L 494 1373 L 519 1413 L 539 1438 L 560 1458 L 583 1474 L 607 1486 L 635 1496 L 653 1500 L 654 1501 L 653 1502 L 629 1499 L 604 1493 L 579 1490 L 578 1489 L 571 1489 L 570 1488 L 563 1488 L 562 1487 L 424 1478 L 423 1477 L 414 1477 L 413 1476 L 383 1473 L 353 1467 L 319 1457 L 304 1451 L 280 1439 L 251 1419 Z M 604 1262 L 610 1271 L 610 1276 L 611 1277 L 616 1278 L 620 1283 L 625 1280 L 619 1269 L 611 1263 L 605 1263 Z M 970 1225 L 969 1228 L 973 1231 L 972 1233 L 974 1235 L 979 1229 Z M 917 1173 L 913 1178 L 919 1182 L 921 1180 L 919 1177 L 920 1174 Z M 1972 1145 L 1957 1173 L 1940 1196 L 1914 1223 L 1892 1241 L 1870 1256 L 1843 1272 L 1770 1309 L 1764 1311 L 1762 1313 L 1717 1336 L 1684 1357 L 1637 1393 L 1618 1405 L 1605 1411 L 1604 1410 L 1616 1400 L 1640 1376 L 1657 1355 L 1674 1329 L 1689 1298 L 1699 1270 L 1702 1256 L 1704 1252 L 1710 1227 L 1711 1218 L 1713 1213 L 1717 1187 L 1726 1142 L 1731 1124 L 1731 1120 L 1742 1079 L 1750 1056 L 1701 1118 L 1682 1146 L 1669 1168 L 1658 1190 L 1645 1222 L 1611 1325 L 1594 1366 L 1578 1396 L 1565 1416 L 1541 1445 L 1523 1462 L 1545 1455 L 1578 1447 L 1603 1443 L 1614 1440 L 1619 1440 L 1630 1437 L 1635 1437 L 1641 1435 L 1646 1435 L 1652 1433 L 1657 1433 L 1713 1420 L 1754 1406 L 1795 1385 L 1831 1358 L 1871 1322 L 1895 1296 L 1915 1271 L 1939 1234 L 1955 1202 L 1966 1172 Z M 75 1145 L 81 1172 L 92 1202 L 108 1234 L 132 1271 L 152 1296 L 176 1322 L 211 1354 L 252 1385 L 293 1406 L 334 1420 L 357 1426 L 380 1430 L 385 1432 L 390 1432 L 401 1435 L 406 1435 L 412 1437 L 417 1437 L 428 1440 L 433 1440 L 439 1442 L 444 1442 L 469 1447 L 487 1452 L 491 1452 L 524 1462 L 506 1445 L 482 1416 L 469 1396 L 453 1366 L 436 1325 L 400 1217 L 389 1190 L 378 1168 L 365 1146 L 346 1118 L 297 1056 L 305 1079 L 316 1120 L 316 1124 L 319 1133 L 319 1137 L 321 1142 L 326 1167 L 327 1177 L 329 1182 L 334 1213 L 336 1218 L 337 1227 L 344 1256 L 358 1298 L 373 1329 L 390 1355 L 407 1376 L 431 1400 L 443 1410 L 442 1411 L 429 1405 L 410 1393 L 363 1357 L 330 1336 L 285 1313 L 283 1311 L 277 1309 L 206 1273 L 180 1258 L 155 1241 L 133 1223 L 107 1196 L 90 1173 Z M 439 1046 L 446 1064 L 450 1070 L 460 1079 L 462 1074 L 458 1065 L 452 1060 L 449 1051 Z M 1455 1031 L 1454 1032 L 1454 1035 L 1456 1039 L 1455 1041 L 1458 1043 L 1460 1036 Z M 1461 1015 L 1460 1021 L 1466 1021 L 1467 1016 Z M 403 1011 L 403 1018 L 408 1019 L 408 1027 L 412 1027 L 411 1026 L 411 1017 L 407 1016 L 405 1014 L 405 1011 Z M 1087 971 L 1083 971 L 1080 973 L 1083 978 L 1085 977 Z M 1640 963 L 1634 965 L 1632 969 L 1633 975 L 1639 973 L 1641 967 Z M 1060 963 L 1059 965 L 1060 969 Z M 1642 954 L 1642 959 L 1645 962 L 1646 958 L 1645 955 Z M 1170 945 L 1168 945 L 1164 948 L 1167 950 L 1171 947 Z M 1326 941 L 1326 954 L 1331 954 L 1331 941 Z M 1665 936 L 1662 937 L 1664 943 L 1666 945 L 1668 944 Z M 1670 928 L 1667 930 L 1669 936 L 1671 936 Z M 704 895 L 704 900 L 709 899 L 709 895 Z M 1006 890 L 1002 892 L 998 889 L 996 889 L 994 891 L 990 900 L 990 904 L 992 907 L 997 907 L 1004 903 L 1006 897 Z M 721 887 L 722 891 L 726 890 L 726 888 L 724 886 Z M 717 871 L 716 875 L 720 876 L 721 872 Z M 1614 866 L 1617 869 L 1620 867 L 1626 866 L 1625 864 L 1619 864 Z M 716 857 L 711 859 L 711 863 L 716 863 Z M 2034 877 L 2032 894 L 2024 921 L 2010 950 L 1993 976 L 1964 1011 L 1892 1084 L 1865 1114 L 1845 1140 L 1821 1177 L 1798 1207 L 1797 1205 L 1812 1178 L 1826 1144 L 1834 1115 L 1837 1092 L 1838 1091 L 1838 1082 L 1839 1081 L 1839 1040 L 1838 1039 L 1837 1019 L 1836 1018 L 1833 993 L 1820 934 L 1820 929 L 1817 916 L 1817 909 L 1816 908 L 1816 901 L 1815 900 L 1814 867 L 1815 866 L 1816 851 L 1801 890 L 1788 942 L 1788 947 L 1783 972 L 1783 978 L 1782 979 L 1782 985 L 1781 986 L 1780 1002 L 1779 1003 L 1767 1139 L 1766 1140 L 1764 1163 L 1763 1164 L 1763 1170 L 1762 1171 L 1757 1203 L 1752 1224 L 1747 1239 L 1735 1267 L 1718 1301 L 1743 1284 L 1830 1230 L 1894 1185 L 1927 1157 L 1952 1132 L 1977 1101 L 1995 1073 L 2008 1047 L 2016 1027 L 2024 1001 L 2031 967 L 2033 943 L 2034 942 L 2034 929 L 2035 928 L 2035 881 Z M 1795 1209 L 1796 1208 L 1797 1209 L 1796 1210 Z M 1796 1207 L 1797 1206 L 1798 1207 L 1797 1208 Z M 13 877 L 12 881 L 13 942 L 14 943 L 14 952 L 15 953 L 17 973 L 23 1001 L 31 1027 L 39 1047 L 52 1073 L 70 1101 L 95 1132 L 120 1157 L 157 1188 L 214 1228 L 285 1273 L 293 1277 L 329 1301 L 311 1265 L 300 1239 L 295 1224 L 290 1203 L 285 1171 L 284 1170 L 281 1140 L 280 1139 L 268 1003 L 267 1002 L 266 986 L 265 985 L 265 979 L 264 978 L 264 972 L 263 971 L 259 942 L 246 890 L 231 851 L 232 866 L 233 867 L 232 899 L 231 900 L 231 908 L 230 909 L 230 916 L 229 917 L 227 934 L 222 954 L 218 978 L 216 983 L 213 1004 L 212 1005 L 211 1018 L 210 1019 L 209 1039 L 208 1040 L 208 1081 L 209 1082 L 209 1091 L 210 1092 L 213 1115 L 221 1144 L 235 1178 L 250 1205 L 249 1207 L 221 1170 L 197 1133 L 177 1108 L 156 1085 L 83 1011 L 54 976 L 37 950 L 23 921 L 15 894 Z M 250 1209 L 251 1208 L 252 1209 L 251 1210 Z M 249 1207 L 250 1206 L 251 1207 L 250 1208 Z M 978 831 L 978 841 L 983 845 L 992 846 L 996 844 L 1001 838 L 1001 836 L 985 835 L 983 831 Z M 715 813 L 706 819 L 703 819 L 698 816 L 698 832 L 709 847 L 714 834 L 714 831 L 709 828 L 710 818 L 714 817 Z M 723 802 L 721 804 L 721 806 L 725 807 L 726 803 Z M 1401 797 L 1404 801 L 1407 802 L 1419 802 L 1418 795 L 1414 792 L 1406 793 Z M 1046 769 L 1035 777 L 1039 781 L 1042 789 L 1043 780 L 1046 778 Z M 698 754 L 699 758 L 701 758 L 703 760 L 705 766 L 704 792 L 702 795 L 695 794 L 692 791 L 690 795 L 690 801 L 692 803 L 700 804 L 705 809 L 706 813 L 711 805 L 710 800 L 710 756 L 709 755 L 700 755 Z M 1075 748 L 1073 751 L 1073 760 L 1085 777 L 1089 779 L 1093 775 L 1085 767 L 1082 761 L 1079 750 L 1077 748 Z M 1400 711 L 1398 707 L 1391 711 L 1386 708 L 1385 712 L 1390 715 L 1394 713 L 1399 713 Z M 1416 704 L 1423 705 L 1424 702 L 1417 701 Z M 970 697 L 962 696 L 960 700 L 957 700 L 957 705 L 960 705 L 962 709 L 956 717 L 951 718 L 939 730 L 938 736 L 934 741 L 929 753 L 915 753 L 914 754 L 912 763 L 912 770 L 913 775 L 915 778 L 926 782 L 927 775 L 932 772 L 932 766 L 940 755 L 941 750 L 944 747 L 950 744 L 957 743 L 961 739 L 963 723 L 967 718 L 975 715 L 975 702 L 971 702 Z M 1462 653 L 1460 657 L 1464 658 L 1465 655 Z M 1465 634 L 1465 638 L 1468 639 L 1468 634 Z M 2014 575 L 2015 585 L 2016 586 L 2016 595 L 2017 596 L 2017 627 L 2016 628 L 2014 651 L 2005 688 L 1986 738 L 1958 798 L 1943 835 L 1926 888 L 1914 936 L 1905 961 L 1901 968 L 1900 965 L 1906 942 L 1908 923 L 1909 922 L 1909 914 L 1910 913 L 1910 901 L 1911 900 L 1910 864 L 1909 863 L 1909 856 L 1904 831 L 1892 797 L 1881 774 L 1864 744 L 1845 714 L 1821 669 L 1811 645 L 1804 621 L 1804 666 L 1805 667 L 1806 692 L 1807 693 L 1810 723 L 1811 724 L 1811 729 L 1812 730 L 1812 735 L 1819 772 L 1836 840 L 1841 854 L 1846 874 L 1851 887 L 1851 890 L 1859 912 L 1859 915 L 1871 949 L 1875 968 L 1877 1009 L 1876 1010 L 1876 1039 L 1875 1040 L 1874 1061 L 1882 1046 L 1899 1021 L 1962 944 L 1987 909 L 2002 882 L 2009 865 L 2011 856 L 2017 840 L 2017 837 L 2026 808 L 2035 762 L 2036 746 L 2037 745 L 2037 733 L 2038 732 L 2038 688 L 2037 687 L 2037 676 L 2036 675 L 2036 667 L 2035 666 L 2035 659 L 2034 658 L 2032 641 L 2030 636 L 2029 627 L 2024 607 Z M 1899 969 L 1900 968 L 1901 969 L 1900 970 Z M 33 575 L 23 607 L 18 627 L 17 636 L 15 641 L 15 646 L 12 659 L 12 666 L 11 667 L 11 675 L 10 676 L 10 687 L 9 688 L 9 732 L 10 733 L 10 745 L 11 746 L 12 762 L 13 763 L 13 769 L 18 795 L 30 840 L 36 856 L 38 865 L 45 882 L 60 909 L 85 944 L 148 1021 L 165 1046 L 173 1061 L 172 1040 L 171 1039 L 171 1011 L 170 1010 L 172 968 L 176 949 L 188 915 L 188 912 L 196 890 L 196 887 L 209 847 L 228 772 L 233 747 L 235 730 L 236 729 L 236 723 L 237 722 L 237 716 L 240 701 L 240 693 L 241 692 L 242 667 L 243 666 L 243 621 L 237 642 L 226 669 L 210 700 L 166 774 L 155 797 L 143 831 L 138 856 L 138 863 L 137 864 L 136 900 L 137 901 L 137 914 L 138 915 L 138 923 L 139 924 L 141 942 L 147 965 L 146 968 L 142 961 L 133 936 L 121 888 L 104 835 L 89 798 L 61 738 L 42 688 L 36 666 L 32 645 L 31 629 L 30 628 L 30 596 L 31 595 L 31 586 L 32 585 Z M 146 969 L 147 968 L 148 969 L 147 970 Z M 1300 566 L 1292 564 L 1291 565 L 1286 565 L 1284 567 L 1286 571 L 1293 571 L 1298 569 Z M 1062 563 L 1062 567 L 1066 567 L 1066 563 Z M 976 563 L 977 567 L 980 566 L 980 563 Z M 982 557 L 981 560 L 987 561 L 987 558 Z M 1056 556 L 1056 559 L 1060 559 L 1060 556 Z M 1282 554 L 1280 558 L 1283 559 L 1285 555 Z M 1105 552 L 1105 554 L 1107 555 L 1106 552 Z M 987 551 L 987 555 L 991 555 L 991 552 Z M 1046 550 L 1045 553 L 1050 554 L 1050 551 Z M 1036 549 L 1036 551 L 1040 551 L 1041 548 Z M 999 547 L 999 550 L 1004 550 L 1004 547 Z M 1119 546 L 1120 549 L 1135 549 L 1135 546 Z M 1107 545 L 1108 549 L 1112 550 L 1111 545 L 1110 544 Z M 1261 542 L 1261 546 L 1267 545 L 1267 542 Z M 1141 548 L 1149 549 L 1154 557 L 1162 558 L 1171 552 L 1172 544 L 1164 547 L 1160 542 L 1153 542 L 1152 543 L 1144 543 L 1142 544 Z M 1443 528 L 1444 536 L 1437 545 L 1442 551 L 1443 564 L 1449 569 L 1450 578 L 1456 583 L 1455 595 L 1458 601 L 1463 603 L 1463 588 L 1459 583 L 1460 563 L 1455 561 L 1453 558 L 1453 553 L 1450 550 L 1449 546 L 1449 536 L 1446 530 Z M 1373 522 L 1372 526 L 1374 527 L 1376 523 Z M 1364 519 L 1364 523 L 1367 523 L 1367 519 Z M 1348 497 L 1345 500 L 1341 501 L 1336 500 L 1334 511 L 1330 517 L 1321 517 L 1323 521 L 1329 527 L 1329 530 L 1325 533 L 1325 534 L 1328 535 L 1327 536 L 1327 541 L 1322 548 L 1318 547 L 1313 551 L 1312 559 L 1331 560 L 1333 559 L 1332 555 L 1335 551 L 1359 552 L 1361 550 L 1357 546 L 1341 546 L 1332 541 L 1332 539 L 1334 537 L 1339 536 L 1343 533 L 1344 530 L 1341 524 L 1343 520 L 1346 523 L 1352 523 L 1353 522 L 1353 517 L 1348 511 L 1353 507 L 1353 505 Z M 1355 489 L 1355 492 L 1358 492 L 1358 489 Z M 1343 485 L 1343 488 L 1350 488 L 1349 485 Z M 1411 482 L 1417 488 L 1417 494 L 1418 495 L 1427 496 L 1430 500 L 1430 516 L 1439 521 L 1442 514 L 1435 503 L 1432 492 L 1426 490 L 1419 482 Z M 1396 449 L 1396 452 L 1399 457 L 1398 458 L 1399 464 L 1405 465 L 1411 468 L 1417 474 L 1424 472 L 1423 467 L 1421 468 L 1416 463 L 1412 463 L 1403 451 L 1400 449 Z M 886 422 L 886 427 L 897 427 L 894 423 Z M 1363 421 L 1364 427 L 1367 427 L 1367 422 Z M 901 417 L 900 420 L 902 422 L 904 422 L 905 419 Z M 1906 312 L 1917 331 L 1924 350 L 1929 372 L 1930 390 L 1931 391 L 1930 437 L 1929 438 L 1928 456 L 1927 457 L 1925 480 L 1924 481 L 1920 519 L 1919 520 L 1918 539 L 1917 540 L 1917 556 L 1916 557 L 1917 594 L 1918 595 L 1918 606 L 1919 607 L 1924 671 L 1925 672 L 1925 681 L 1924 682 L 1915 647 L 1905 620 L 1897 603 L 1882 578 L 1867 558 L 1840 529 L 1815 506 L 1770 468 L 1756 449 L 1744 426 L 1759 491 L 1766 513 L 1777 539 L 1800 579 L 1862 666 L 1893 715 L 1913 757 L 1921 781 L 1925 798 L 1925 803 L 1928 773 L 1934 744 L 1952 687 L 1954 684 L 1973 629 L 1984 588 L 1987 567 L 1988 566 L 1989 548 L 1990 547 L 1990 505 L 1989 504 L 1989 494 L 1988 493 L 1986 473 L 1980 446 L 1971 418 L 1962 396 L 1942 359 L 1924 333 Z M 1924 684 L 1925 683 L 1926 685 L 1925 686 Z M 141 312 L 117 341 L 99 369 L 85 396 L 76 418 L 67 446 L 62 467 L 60 485 L 59 486 L 59 493 L 58 494 L 58 504 L 57 505 L 57 547 L 58 548 L 59 566 L 60 567 L 63 588 L 74 629 L 94 687 L 96 690 L 113 744 L 119 773 L 122 803 L 122 798 L 126 781 L 134 757 L 154 715 L 185 666 L 247 579 L 270 539 L 281 513 L 288 491 L 303 426 L 291 449 L 277 468 L 232 506 L 208 528 L 186 551 L 167 575 L 155 594 L 142 620 L 131 650 L 123 681 L 122 680 L 122 672 L 123 671 L 123 661 L 124 660 L 124 650 L 125 649 L 125 639 L 126 638 L 126 628 L 127 627 L 127 617 L 128 616 L 129 595 L 130 594 L 131 557 L 130 556 L 130 540 L 129 539 L 128 520 L 127 519 L 124 488 L 123 487 L 120 457 L 119 456 L 118 438 L 117 437 L 116 390 L 117 389 L 118 372 L 122 353 L 130 331 Z M 121 684 L 122 683 L 123 685 L 122 686 Z M 769 280 L 768 283 L 772 285 L 773 282 L 771 280 Z M 1168 274 L 1172 280 L 1174 290 L 1177 293 L 1186 296 L 1190 302 L 1197 303 L 1202 306 L 1219 321 L 1219 316 L 1216 311 L 1211 310 L 1208 308 L 1205 304 L 1206 302 L 1198 298 L 1195 298 L 1185 288 L 1186 286 L 1188 286 L 1188 282 L 1177 282 L 1175 279 L 1175 275 Z M 1133 240 L 1133 245 L 1140 246 L 1138 241 Z M 942 234 L 950 242 L 956 242 L 962 246 L 968 246 L 969 244 L 968 240 L 962 239 L 957 233 L 946 232 Z M 1117 214 L 1116 217 L 1122 218 L 1127 225 L 1130 223 L 1125 215 Z M 1139 216 L 1146 219 L 1153 220 L 1157 223 L 1159 227 L 1166 227 L 1166 222 L 1156 212 L 1153 212 L 1147 209 L 1141 213 Z M 1135 202 L 1132 208 L 1134 209 L 1136 208 L 1138 204 Z M 1349 198 L 1349 203 L 1352 207 L 1368 212 L 1378 222 L 1381 223 L 1380 211 L 1377 204 L 1366 194 L 1359 193 L 1355 194 Z M 1753 179 L 1767 189 L 1787 210 L 1799 228 L 1810 251 L 1819 278 L 1825 303 L 1825 307 L 1827 312 L 1828 322 L 1833 342 L 1836 361 L 1843 388 L 1850 409 L 1854 427 L 1858 438 L 1860 449 L 1859 450 L 1857 445 L 1848 428 L 1836 411 L 1810 384 L 1787 365 L 1746 336 L 1715 312 L 1684 282 L 1667 259 L 1659 245 L 1656 237 L 1657 252 L 1660 268 L 1669 297 L 1686 331 L 1700 352 L 1715 371 L 1755 412 L 1787 439 L 1816 460 L 1852 495 L 1877 526 L 1891 548 L 1894 555 L 1893 550 L 1893 508 L 1894 507 L 1894 483 L 1895 482 L 1896 447 L 1897 446 L 1896 384 L 1895 383 L 1894 363 L 1893 362 L 1893 355 L 1892 354 L 1890 336 L 1883 307 L 1877 289 L 1868 268 L 1859 252 L 1847 235 L 1830 217 L 1812 203 L 1786 189 L 1763 181 Z M 1861 452 L 1862 453 L 1861 456 L 1860 455 Z M 1860 449 L 1861 450 L 1860 453 L 1859 452 Z M 294 179 L 281 182 L 261 189 L 243 198 L 224 211 L 205 229 L 194 243 L 181 264 L 173 281 L 164 307 L 158 331 L 155 354 L 154 355 L 154 362 L 153 363 L 152 383 L 151 384 L 150 446 L 151 447 L 151 468 L 152 469 L 153 507 L 154 508 L 154 550 L 153 555 L 156 548 L 170 526 L 195 495 L 231 460 L 260 439 L 292 412 L 332 371 L 347 352 L 361 331 L 378 297 L 387 268 L 390 252 L 391 237 L 380 259 L 363 282 L 332 312 L 301 336 L 260 365 L 237 384 L 211 411 L 199 428 L 190 445 L 188 450 L 187 449 L 189 438 L 191 434 L 197 409 L 204 388 L 211 361 L 220 312 L 222 307 L 222 303 L 228 278 L 237 251 L 248 228 L 260 210 L 280 189 Z M 186 452 L 187 453 L 186 456 L 185 455 Z M 187 449 L 188 450 L 187 453 L 186 452 Z M 1037 121 L 1060 123 L 1064 130 L 1080 131 L 1092 143 L 1100 144 L 1100 140 L 1088 128 L 1088 120 L 1085 117 L 1083 109 L 1081 106 L 1075 104 L 1068 105 L 1063 107 L 1053 114 L 1042 115 Z M 1170 95 L 1168 92 L 1163 93 L 1142 93 L 1140 90 L 1133 90 L 1126 96 L 1110 97 L 1101 103 L 1098 103 L 1095 100 L 1092 104 L 1092 110 L 1098 113 L 1111 113 L 1114 112 L 1116 108 L 1153 108 L 1156 102 L 1159 100 L 1163 99 L 1170 100 Z M 1561 79 L 1588 106 L 1605 126 L 1640 173 L 1677 227 L 1695 250 L 1730 284 L 1779 323 L 1807 347 L 1797 325 L 1778 264 L 1778 261 L 1766 229 L 1755 208 L 1737 184 L 1713 160 L 1702 151 L 1664 126 L 1633 110 Z M 486 79 L 414 110 L 383 126 L 345 151 L 333 161 L 310 184 L 292 208 L 281 229 L 269 261 L 269 264 L 250 325 L 240 347 L 257 332 L 317 284 L 352 250 L 370 227 L 407 173 L 442 126 L 459 106 Z M 1190 79 L 1187 77 L 1182 81 L 1178 78 L 1177 81 L 1183 86 Z M 1157 62 L 1155 60 L 1153 60 L 1149 63 L 1143 61 L 1142 64 L 1148 68 Z M 991 9 L 990 10 L 974 10 L 973 11 L 940 13 L 939 14 L 932 14 L 911 18 L 905 18 L 904 19 L 878 23 L 836 33 L 776 52 L 736 68 L 714 79 L 712 79 L 710 81 L 696 87 L 658 108 L 629 126 L 603 144 L 574 166 L 539 196 L 492 243 L 467 272 L 443 303 L 417 341 L 400 369 L 371 425 L 371 427 L 357 457 L 356 462 L 345 489 L 334 523 L 325 556 L 325 560 L 317 593 L 313 623 L 312 624 L 312 630 L 311 631 L 311 637 L 310 638 L 308 667 L 307 668 L 307 681 L 306 682 L 306 702 L 305 703 L 306 773 L 307 774 L 307 787 L 308 788 L 308 798 L 309 799 L 309 808 L 310 809 L 312 831 L 313 832 L 317 861 L 327 906 L 329 910 L 335 935 L 348 974 L 364 1014 L 375 1036 L 375 1038 L 405 1094 L 442 1150 L 461 1175 L 489 1208 L 543 1262 L 565 1281 L 597 1306 L 630 1329 L 659 1347 L 682 1360 L 722 1380 L 724 1380 L 747 1391 L 775 1402 L 786 1405 L 789 1407 L 827 1419 L 838 1421 L 858 1427 L 862 1427 L 886 1433 L 891 1433 L 897 1435 L 915 1437 L 922 1439 L 928 1439 L 929 1440 L 955 1442 L 956 1443 L 967 1443 L 968 1444 L 983 1444 L 984 1445 L 1011 1445 L 1012 1446 L 1063 1445 L 1064 1444 L 1079 1444 L 1080 1443 L 1091 1443 L 1092 1442 L 1118 1440 L 1119 1439 L 1125 1439 L 1126 1438 L 1156 1434 L 1185 1427 L 1189 1427 L 1216 1420 L 1220 1418 L 1227 1417 L 1258 1407 L 1261 1405 L 1272 1402 L 1300 1391 L 1323 1380 L 1325 1380 L 1365 1360 L 1403 1338 L 1429 1321 L 1462 1297 L 1488 1276 L 1517 1250 L 1547 1220 L 1566 1199 L 1586 1175 L 1615 1136 L 1649 1082 L 1678 1025 L 1696 982 L 1703 960 L 1705 957 L 1705 954 L 1711 938 L 1723 894 L 1723 890 L 1730 861 L 1734 831 L 1736 824 L 1738 799 L 1739 798 L 1739 787 L 1740 786 L 1740 773 L 1741 772 L 1741 752 L 1742 751 L 1741 682 L 1740 681 L 1739 656 L 1738 655 L 1738 647 L 1737 646 L 1737 638 L 1736 637 L 1734 617 L 1721 552 L 1702 489 L 1700 486 L 1690 457 L 1676 427 L 1676 425 L 1647 369 L 1630 341 L 1604 303 L 1563 252 L 1538 225 L 1508 196 L 1464 159 L 1437 139 L 1404 117 L 1368 96 L 1341 82 L 1339 82 L 1335 79 L 1333 79 L 1311 68 L 1271 52 L 1211 33 L 1169 23 L 1143 19 L 1142 18 L 1130 17 L 1129 16 L 1108 14 L 1107 13 L 1098 13 L 1097 12 L 1088 12 L 1087 11 L 1057 10 L 1056 9 Z M 1032 1163 L 1033 1162 L 1052 1162 L 1053 1161 L 1065 1161 L 1066 1160 L 1089 1158 L 1093 1166 L 1113 1171 L 1115 1174 L 1117 1184 L 1124 1186 L 1125 1192 L 1129 1198 L 1129 1203 L 1124 1212 L 1124 1228 L 1129 1231 L 1129 1238 L 1138 1247 L 1148 1247 L 1163 1263 L 1141 1269 L 1109 1275 L 1103 1275 L 1102 1276 L 1077 1278 L 1076 1279 L 1066 1279 L 1065 1280 L 1033 1281 L 1032 1280 Z M 1514 1229 L 1499 1244 L 1463 1275 L 1430 1300 L 1405 1317 L 1374 1336 L 1341 1353 L 1339 1355 L 1337 1355 L 1316 1366 L 1286 1379 L 1254 1390 L 1251 1392 L 1216 1403 L 1152 1418 L 1114 1423 L 1113 1424 L 1106 1424 L 1105 1425 L 1087 1426 L 1086 1427 L 1056 1428 L 1055 1429 L 1033 1429 L 1032 1428 L 1032 1298 L 1033 1297 L 1058 1297 L 1059 1296 L 1071 1296 L 1072 1295 L 1099 1293 L 1100 1292 L 1113 1291 L 1145 1285 L 1170 1279 L 1174 1277 L 1179 1277 L 1197 1283 L 1199 1285 L 1202 1295 L 1207 1294 L 1213 1290 L 1228 1290 L 1238 1281 L 1244 1281 L 1250 1278 L 1327 1212 L 1326 1211 L 1352 1194 L 1375 1177 L 1399 1157 L 1420 1137 L 1424 1139 Z M 533 1229 L 623 1139 L 627 1137 L 648 1157 L 676 1180 L 719 1210 L 755 1231 L 806 1255 L 856 1273 L 902 1285 L 934 1291 L 964 1294 L 965 1295 L 988 1296 L 989 1297 L 1014 1297 L 1015 1298 L 1015 1428 L 1014 1429 L 992 1429 L 991 1428 L 961 1427 L 960 1426 L 942 1425 L 941 1424 L 934 1424 L 933 1423 L 895 1418 L 831 1403 L 799 1393 L 796 1391 L 782 1387 L 754 1376 L 731 1365 L 729 1365 L 689 1345 L 639 1315 L 617 1300 L 584 1275 L 548 1244 Z M 1032 1133 L 1036 1131 L 1048 1131 L 1064 1138 L 1075 1137 L 1078 1142 L 1077 1143 L 1060 1144 L 1059 1145 L 1033 1146 L 1032 1145 Z M 613 1087 L 620 1087 L 626 1090 L 637 1102 L 626 1113 L 608 1093 L 610 1092 L 610 1090 Z M 1384 1076 L 1385 1075 L 1386 1076 L 1385 1077 Z M 638 1124 L 654 1108 L 657 1110 L 659 1120 L 662 1124 L 706 1123 L 720 1110 L 761 1109 L 767 1103 L 767 1094 L 763 1085 L 758 1080 L 758 1074 L 759 1073 L 772 1083 L 808 1106 L 839 1122 L 875 1137 L 914 1149 L 918 1149 L 946 1156 L 972 1159 L 973 1160 L 981 1160 L 982 1161 L 1014 1162 L 1015 1163 L 1015 1280 L 1014 1281 L 982 1280 L 981 1279 L 961 1278 L 960 1277 L 953 1277 L 952 1276 L 945 1276 L 944 1275 L 926 1273 L 870 1260 L 820 1243 L 790 1230 L 764 1217 L 714 1187 L 670 1154 L 643 1130 Z M 1325 1041 L 1360 1076 L 1355 1082 L 1353 1083 L 1350 1082 L 1356 1089 L 1360 1090 L 1362 1088 L 1364 1080 L 1379 1094 L 1376 1100 L 1376 1104 L 1383 1108 L 1383 1120 L 1388 1123 L 1393 1124 L 1408 1123 L 1409 1125 L 1367 1162 L 1333 1187 L 1321 1194 L 1320 1192 L 1326 1186 L 1329 1181 L 1330 1171 L 1327 1166 L 1319 1164 L 1316 1161 L 1316 1157 L 1321 1152 L 1330 1149 L 1330 1142 L 1346 1127 L 1346 1115 L 1311 1086 L 1307 1084 L 1303 1076 L 1305 1063 L 1308 1057 L 1323 1044 Z M 1115 1001 L 1113 1003 L 1109 1004 L 1106 1003 L 1112 1000 Z M 1177 982 L 1180 980 L 1186 979 L 1185 972 L 1187 971 L 1207 982 L 1215 982 L 1219 986 L 1224 986 L 1231 991 L 1251 990 L 1255 994 L 1262 997 L 1283 998 L 1289 1004 L 1283 1008 L 1268 1011 L 1245 1010 L 1239 1006 L 1225 1000 L 1217 994 L 1213 993 L 1211 995 L 1209 995 L 1202 992 L 1199 993 L 1190 987 Z M 1032 962 L 1038 955 L 1054 952 L 1056 949 L 1059 949 L 1064 953 L 1068 953 L 1075 958 L 1081 958 L 1087 961 L 1086 966 L 1089 968 L 1090 960 L 1092 958 L 1094 959 L 1094 958 L 1090 954 L 1075 948 L 1073 946 L 1072 942 L 1074 940 L 1091 941 L 1100 953 L 1103 961 L 1107 964 L 1114 963 L 1117 968 L 1123 968 L 1125 972 L 1135 972 L 1136 973 L 1129 977 L 1101 987 L 1074 993 L 1072 991 L 1072 983 L 1068 979 L 1060 979 L 1058 981 L 1058 983 L 1055 985 L 1034 985 L 1032 983 Z M 734 1028 L 823 939 L 827 937 L 859 963 L 894 984 L 924 997 L 965 1009 L 955 1015 L 954 1021 L 950 1025 L 946 1027 L 943 1027 L 937 1035 L 929 1037 L 928 1052 L 923 1056 L 923 1062 L 919 1063 L 917 1067 L 911 1068 L 915 1078 L 926 1084 L 927 1086 L 927 1095 L 929 1095 L 933 1098 L 934 1103 L 942 1120 L 944 1122 L 953 1122 L 956 1125 L 958 1131 L 986 1131 L 989 1136 L 1014 1138 L 1015 1139 L 1015 1145 L 1014 1146 L 988 1145 L 987 1144 L 978 1144 L 977 1143 L 970 1143 L 969 1142 L 939 1138 L 907 1130 L 864 1115 L 826 1097 L 781 1069 L 747 1042 L 734 1030 Z M 1014 911 L 1015 912 L 1014 915 L 1013 914 Z M 1174 903 L 1179 908 L 1179 912 L 1175 917 L 1167 918 L 1165 921 L 1161 922 L 1148 922 L 1146 929 L 1141 930 L 1136 934 L 1134 939 L 1136 945 L 1135 953 L 1142 956 L 1152 953 L 1156 946 L 1167 939 L 1173 940 L 1179 948 L 1167 957 L 1140 972 L 1138 971 L 1138 967 L 1127 965 L 1125 957 L 1119 956 L 1116 953 L 1116 944 L 1119 941 L 1123 944 L 1127 944 L 1125 935 L 1127 933 L 1131 932 L 1130 931 L 1130 920 L 1129 918 L 1125 916 L 1125 912 L 1126 911 L 1143 911 L 1143 901 L 1145 898 L 1150 898 L 1151 901 Z M 1089 866 L 1089 868 L 1084 873 L 1079 873 L 1078 877 L 1079 880 L 1081 880 L 1082 882 L 1070 894 L 1062 891 L 1054 891 L 1050 885 L 1046 885 L 1045 895 L 1034 907 L 1036 907 L 1038 910 L 1034 914 L 1032 913 L 1032 880 L 1033 879 L 1048 878 L 1053 876 L 1061 883 L 1067 883 L 1068 873 L 1069 872 L 1082 868 L 1087 865 Z M 1179 861 L 1183 858 L 1188 858 L 1190 860 L 1189 870 L 1194 867 L 1200 867 L 1206 872 L 1207 876 L 1211 877 L 1216 875 L 1221 881 L 1222 885 L 1221 888 L 1219 890 L 1209 890 L 1205 887 L 1204 884 L 1200 887 L 1196 888 L 1178 870 Z M 839 924 L 919 843 L 923 841 L 928 846 L 942 856 L 965 868 L 982 874 L 1002 878 L 1009 878 L 1013 880 L 1011 889 L 1015 892 L 1015 898 L 1014 899 L 1012 898 L 1012 903 L 1008 905 L 1009 911 L 1006 914 L 1014 915 L 1015 920 L 1014 921 L 1011 920 L 1011 924 L 1006 926 L 1011 931 L 1015 932 L 1014 947 L 1010 950 L 999 950 L 991 948 L 988 946 L 988 957 L 983 960 L 984 965 L 983 980 L 990 979 L 991 984 L 996 985 L 1010 985 L 1014 981 L 1015 982 L 1015 996 L 1014 997 L 997 997 L 996 996 L 975 994 L 946 987 L 923 979 L 901 969 L 880 957 L 851 936 Z M 1075 838 L 1078 842 L 1078 851 L 1070 855 L 1065 856 L 1064 855 L 1064 846 L 1072 838 Z M 758 778 L 760 777 L 767 785 L 768 788 L 771 789 L 797 789 L 803 795 L 807 806 L 815 802 L 821 803 L 825 807 L 824 810 L 821 813 L 829 820 L 832 826 L 834 825 L 838 826 L 841 829 L 841 831 L 843 826 L 843 822 L 841 820 L 841 817 L 844 815 L 850 816 L 853 819 L 853 824 L 848 832 L 855 838 L 856 854 L 861 853 L 865 849 L 867 844 L 867 834 L 871 832 L 874 832 L 874 830 L 876 828 L 879 828 L 878 825 L 879 812 L 883 805 L 890 800 L 901 818 L 910 829 L 826 912 L 804 886 L 785 856 L 773 831 L 769 818 L 767 815 L 760 791 Z M 757 777 L 758 776 L 759 777 L 758 778 Z M 1724 735 L 1725 736 L 1724 781 L 1723 782 L 1722 803 L 1721 804 L 1721 811 L 1720 812 L 1720 819 L 1719 820 L 1715 852 L 1709 877 L 1708 886 L 1698 924 L 1685 964 L 1673 995 L 1648 1049 L 1615 1106 L 1591 1141 L 1571 1167 L 1540 1203 L 1525 1217 L 1433 1124 L 1446 1111 L 1465 1089 L 1501 1040 L 1526 998 L 1552 943 L 1568 899 L 1581 850 L 1587 818 L 1587 813 L 1588 812 L 1589 798 L 1590 797 L 1592 767 L 1593 766 L 1594 736 L 1595 735 Z M 1576 735 L 1577 736 L 1577 759 L 1576 760 L 1575 783 L 1574 784 L 1574 792 L 1573 793 L 1570 821 L 1565 846 L 1563 851 L 1563 855 L 1555 885 L 1549 901 L 1547 910 L 1535 941 L 1511 991 L 1491 1025 L 1462 1066 L 1444 1088 L 1421 1113 L 1419 1111 L 1418 1092 L 1415 1089 L 1414 1084 L 1414 1065 L 1411 1059 L 1401 1050 L 1398 1052 L 1389 1053 L 1384 1076 L 1337 1029 L 1360 1004 L 1384 972 L 1401 945 L 1424 899 L 1441 852 L 1446 830 L 1448 826 L 1454 794 L 1456 773 L 1457 772 L 1459 736 L 1460 735 Z M 1441 735 L 1442 736 L 1441 766 L 1440 767 L 1440 775 L 1439 776 L 1439 783 L 1438 784 L 1435 808 L 1426 845 L 1412 885 L 1392 927 L 1376 954 L 1345 996 L 1325 1017 L 1324 1016 L 1321 992 L 1320 990 L 1315 987 L 1316 970 L 1309 970 L 1295 987 L 1290 982 L 1291 980 L 1290 972 L 1295 967 L 1295 961 L 1300 958 L 1300 944 L 1304 941 L 1304 906 L 1294 897 L 1291 899 L 1282 900 L 1276 905 L 1278 910 L 1278 916 L 1273 920 L 1260 923 L 1256 927 L 1245 927 L 1243 923 L 1243 917 L 1246 915 L 1253 914 L 1263 910 L 1267 900 L 1271 896 L 1277 895 L 1286 887 L 1293 878 L 1295 868 L 1300 857 L 1308 850 L 1330 850 L 1334 845 L 1334 838 L 1335 837 L 1344 836 L 1346 841 L 1348 842 L 1357 842 L 1364 835 L 1369 836 L 1374 835 L 1382 831 L 1386 827 L 1401 827 L 1402 826 L 1403 820 L 1391 805 L 1377 797 L 1374 798 L 1370 796 L 1366 792 L 1363 784 L 1363 778 L 1359 770 L 1357 762 L 1350 753 L 1343 749 L 1340 744 L 1340 738 L 1343 735 Z M 870 735 L 872 737 L 873 751 L 868 754 L 866 752 L 865 757 L 863 759 L 851 759 L 849 751 L 851 749 L 854 749 L 858 747 L 861 741 L 861 737 L 863 735 Z M 680 736 L 683 736 L 687 738 L 697 738 L 699 735 L 731 735 L 732 736 L 735 756 L 726 763 L 720 770 L 720 776 L 724 780 L 726 780 L 730 785 L 727 790 L 725 790 L 721 787 L 717 787 L 717 789 L 723 795 L 730 796 L 732 793 L 732 789 L 740 782 L 742 783 L 745 799 L 752 822 L 759 840 L 770 863 L 790 895 L 814 924 L 722 1017 L 719 1015 L 705 999 L 705 996 L 708 990 L 712 986 L 712 981 L 706 974 L 706 966 L 703 958 L 696 951 L 691 940 L 691 917 L 688 914 L 688 909 L 697 904 L 697 896 L 692 890 L 691 881 L 683 881 L 680 879 L 678 845 L 657 814 L 650 806 L 650 799 L 653 795 L 653 790 L 649 782 L 649 769 L 657 767 L 664 767 L 668 761 L 675 761 L 674 742 Z M 606 735 L 655 735 L 657 737 L 657 740 L 646 752 L 647 763 L 645 765 L 642 765 L 640 768 L 637 786 L 644 786 L 646 788 L 646 795 L 644 798 L 639 800 L 636 803 L 638 806 L 637 807 L 629 807 L 625 804 L 625 802 L 621 798 L 613 797 L 610 794 L 608 776 L 607 775 L 607 767 L 606 766 L 606 754 L 605 753 L 605 736 Z M 587 735 L 589 742 L 589 760 L 590 761 L 590 772 L 591 773 L 592 787 L 577 791 L 573 802 L 565 808 L 561 816 L 558 819 L 555 820 L 550 826 L 551 831 L 549 833 L 547 833 L 547 849 L 543 855 L 544 858 L 544 871 L 548 876 L 548 880 L 543 883 L 542 890 L 540 892 L 527 896 L 523 901 L 504 900 L 499 904 L 497 901 L 497 898 L 487 867 L 477 821 L 474 793 L 473 792 L 473 784 L 472 783 L 472 773 L 471 772 L 470 736 L 471 735 Z M 323 735 L 452 735 L 453 736 L 455 779 L 456 780 L 456 788 L 457 789 L 457 797 L 458 798 L 461 825 L 466 850 L 468 855 L 468 859 L 479 899 L 478 900 L 458 900 L 456 896 L 453 896 L 449 894 L 448 887 L 439 887 L 437 888 L 435 892 L 424 893 L 423 898 L 414 908 L 411 909 L 405 901 L 403 896 L 408 893 L 417 892 L 417 887 L 391 886 L 387 891 L 378 891 L 377 892 L 377 902 L 375 904 L 371 905 L 371 910 L 375 917 L 375 922 L 371 929 L 371 933 L 374 939 L 377 941 L 377 943 L 372 947 L 374 952 L 378 956 L 376 960 L 377 963 L 381 967 L 382 979 L 387 982 L 387 991 L 390 995 L 401 995 L 400 977 L 397 973 L 397 969 L 400 966 L 405 964 L 409 965 L 414 971 L 417 972 L 420 975 L 422 981 L 427 985 L 432 985 L 435 982 L 437 976 L 439 974 L 441 974 L 444 977 L 447 984 L 461 998 L 471 998 L 473 1000 L 474 1009 L 484 1009 L 489 1013 L 492 1018 L 495 1029 L 498 1035 L 506 1044 L 511 1047 L 522 1047 L 523 1044 L 526 1043 L 532 1049 L 535 1057 L 552 1074 L 572 1078 L 577 1082 L 601 1111 L 614 1124 L 522 1217 L 507 1203 L 485 1178 L 446 1127 L 430 1103 L 407 1064 L 389 1029 L 389 1027 L 374 995 L 363 967 L 349 924 L 339 886 L 338 877 L 332 852 L 328 820 L 327 819 L 326 804 L 325 803 L 324 782 L 323 781 L 323 766 L 322 765 L 322 736 Z M 692 692 L 699 685 L 705 682 L 716 682 L 721 685 L 725 684 L 733 685 L 738 692 L 738 702 L 737 707 L 732 715 L 732 718 L 731 719 L 696 719 L 692 715 L 690 710 L 690 697 Z M 1009 592 L 1021 592 L 1023 596 L 1023 609 L 1022 610 L 1015 607 L 1010 607 L 1008 603 L 1004 602 L 1004 618 L 1011 624 L 1018 625 L 1020 628 L 1020 634 L 1032 634 L 1033 635 L 1038 635 L 1041 638 L 1051 639 L 1073 661 L 1072 667 L 1066 673 L 1058 673 L 1058 676 L 1062 676 L 1069 679 L 1074 669 L 1077 666 L 1080 665 L 1084 666 L 1087 669 L 1089 675 L 1087 678 L 1085 678 L 1085 688 L 1087 688 L 1091 691 L 1092 697 L 1086 704 L 1084 712 L 1081 715 L 1074 716 L 1070 721 L 1064 722 L 1079 724 L 1079 722 L 1083 718 L 1085 718 L 1089 722 L 1090 728 L 1094 730 L 1093 737 L 1098 740 L 1098 763 L 1102 767 L 1109 767 L 1110 768 L 1109 772 L 1105 777 L 1105 787 L 1106 789 L 1102 794 L 1102 799 L 1098 802 L 1098 810 L 1097 811 L 1093 809 L 1083 809 L 1079 811 L 1072 808 L 1061 809 L 1059 811 L 1060 816 L 1058 818 L 1054 819 L 1049 824 L 1050 829 L 1048 832 L 1045 833 L 1045 847 L 1037 855 L 1037 861 L 1031 863 L 1016 863 L 1015 862 L 999 861 L 977 855 L 954 844 L 941 835 L 936 830 L 939 826 L 945 824 L 948 818 L 967 819 L 969 815 L 975 814 L 981 820 L 985 819 L 991 810 L 998 810 L 999 802 L 1003 799 L 1003 787 L 1011 781 L 1013 771 L 1015 769 L 1015 765 L 1011 761 L 1011 759 L 1013 757 L 1016 757 L 1011 752 L 1007 752 L 1002 747 L 990 747 L 989 746 L 988 726 L 977 722 L 970 729 L 969 745 L 965 747 L 962 747 L 961 765 L 959 768 L 955 769 L 955 775 L 956 776 L 953 778 L 940 781 L 939 790 L 934 793 L 931 798 L 928 816 L 926 821 L 910 802 L 900 784 L 901 778 L 898 775 L 898 771 L 903 770 L 907 774 L 908 773 L 902 757 L 896 751 L 890 749 L 888 739 L 888 719 L 892 718 L 902 726 L 904 729 L 904 732 L 900 734 L 899 737 L 899 742 L 901 748 L 906 748 L 908 743 L 914 739 L 922 739 L 928 743 L 932 734 L 929 732 L 928 726 L 931 723 L 935 724 L 939 723 L 945 714 L 946 716 L 943 711 L 942 707 L 943 704 L 948 699 L 948 695 L 951 692 L 957 691 L 958 687 L 958 681 L 957 680 L 949 680 L 945 685 L 940 680 L 950 672 L 950 665 L 955 663 L 955 656 L 956 655 L 968 655 L 975 652 L 979 647 L 988 647 L 1002 634 L 1002 630 L 997 627 L 1001 622 L 1002 610 L 995 610 L 994 609 L 993 596 L 996 594 L 1008 593 Z M 1243 570 L 1252 582 L 1252 588 L 1255 597 L 1255 602 L 1254 603 L 1246 603 L 1242 598 L 1237 597 L 1236 600 L 1237 613 L 1234 616 L 1231 616 L 1224 607 L 1224 602 L 1221 597 L 1220 590 L 1223 586 L 1230 584 L 1230 581 L 1228 578 L 1229 575 L 1234 572 L 1241 572 Z M 1243 569 L 1241 570 L 1233 568 L 1217 567 L 1209 575 L 1205 583 L 1201 587 L 1198 587 L 1194 585 L 1189 578 L 1189 574 L 1207 555 L 1231 554 Z M 784 601 L 791 588 L 805 567 L 824 544 L 827 542 L 895 611 L 891 612 L 888 615 L 885 615 L 879 610 L 876 609 L 869 611 L 867 614 L 864 614 L 858 611 L 829 589 L 821 585 L 807 586 L 795 593 L 790 602 L 785 602 Z M 1032 458 L 1033 457 L 1045 457 L 1046 458 L 1056 458 L 1057 459 L 1070 460 L 1103 468 L 1128 477 L 1149 487 L 1168 498 L 1188 512 L 1209 530 L 1206 533 L 1201 532 L 1197 529 L 1197 527 L 1195 525 L 1192 524 L 1191 529 L 1189 531 L 1181 532 L 1178 536 L 1178 539 L 1180 541 L 1192 540 L 1195 544 L 1162 577 L 1157 576 L 1154 579 L 1152 579 L 1146 574 L 1149 563 L 1146 563 L 1142 571 L 1137 571 L 1133 573 L 1131 576 L 1132 581 L 1127 584 L 1127 588 L 1134 593 L 1133 597 L 1139 600 L 1133 606 L 1125 606 L 1121 610 L 1103 597 L 1083 587 L 1084 585 L 1087 584 L 1091 580 L 1095 564 L 1095 559 L 1093 558 L 1092 559 L 1086 559 L 1080 566 L 1075 568 L 1072 571 L 1073 575 L 1069 577 L 1068 582 L 1055 578 L 1050 578 L 1043 576 L 1034 576 L 1032 574 Z M 1015 458 L 1015 574 L 1013 576 L 1004 576 L 1003 577 L 992 578 L 973 583 L 971 574 L 974 572 L 970 570 L 966 574 L 965 580 L 963 582 L 957 583 L 956 587 L 952 587 L 952 592 L 949 595 L 935 603 L 923 613 L 921 613 L 838 530 L 859 512 L 879 498 L 896 488 L 919 477 L 944 468 L 977 460 L 983 460 L 991 458 L 1001 458 L 1002 457 L 1014 457 Z M 1324 438 L 1342 455 L 1343 462 L 1345 464 L 1348 463 L 1352 467 L 1355 472 L 1355 475 L 1358 478 L 1361 479 L 1369 490 L 1391 526 L 1386 529 L 1379 529 L 1378 530 L 1378 540 L 1373 543 L 1373 550 L 1380 549 L 1382 555 L 1384 553 L 1390 553 L 1399 557 L 1402 561 L 1402 565 L 1416 580 L 1427 613 L 1436 652 L 1437 664 L 1435 669 L 1429 674 L 1433 675 L 1432 688 L 1431 689 L 1432 692 L 1435 694 L 1439 689 L 1441 690 L 1441 700 L 1442 701 L 1442 718 L 1441 719 L 1358 719 L 1357 716 L 1360 710 L 1371 707 L 1372 698 L 1367 698 L 1366 697 L 1371 689 L 1376 684 L 1406 683 L 1411 675 L 1413 667 L 1415 665 L 1421 664 L 1426 660 L 1431 651 L 1431 641 L 1429 634 L 1426 632 L 1420 636 L 1417 636 L 1415 644 L 1412 647 L 1411 657 L 1401 667 L 1380 667 L 1377 663 L 1377 660 L 1380 656 L 1384 655 L 1384 649 L 1382 643 L 1387 642 L 1389 630 L 1391 629 L 1391 627 L 1379 614 L 1376 615 L 1366 615 L 1364 614 L 1361 619 L 1354 620 L 1354 626 L 1348 632 L 1343 635 L 1338 635 L 1336 631 L 1340 621 L 1340 614 L 1328 614 L 1324 612 L 1321 609 L 1319 600 L 1305 585 L 1287 583 L 1285 579 L 1274 578 L 1267 575 L 1256 559 L 1254 549 L 1248 540 L 1243 536 L 1239 537 L 1233 531 L 1235 527 Z M 722 437 L 812 527 L 814 531 L 806 539 L 791 558 L 773 586 L 769 595 L 766 598 L 761 598 L 756 604 L 747 605 L 746 608 L 739 609 L 737 613 L 751 613 L 753 615 L 752 619 L 747 625 L 734 627 L 731 630 L 722 630 L 717 636 L 706 636 L 704 635 L 698 640 L 696 643 L 697 645 L 696 649 L 689 655 L 687 659 L 688 663 L 683 671 L 682 678 L 678 679 L 678 699 L 669 705 L 669 714 L 664 719 L 606 719 L 605 718 L 605 701 L 606 700 L 606 688 L 607 687 L 607 679 L 608 678 L 608 671 L 609 670 L 611 652 L 620 613 L 636 567 L 653 531 L 670 502 L 695 467 Z M 1364 398 L 1370 400 L 1379 409 L 1384 418 L 1385 423 L 1391 424 L 1393 419 L 1397 415 L 1405 416 L 1408 420 L 1410 433 L 1413 439 L 1419 445 L 1426 444 L 1431 449 L 1439 450 L 1445 458 L 1450 462 L 1460 462 L 1467 465 L 1474 478 L 1484 483 L 1488 493 L 1496 500 L 1497 506 L 1505 508 L 1507 516 L 1520 515 L 1531 507 L 1533 509 L 1545 539 L 1554 566 L 1565 608 L 1571 640 L 1574 670 L 1575 671 L 1576 695 L 1577 696 L 1577 718 L 1576 719 L 1460 719 L 1459 718 L 1458 694 L 1457 693 L 1457 683 L 1456 682 L 1456 674 L 1455 673 L 1454 663 L 1456 658 L 1455 647 L 1459 637 L 1459 629 L 1457 626 L 1457 618 L 1461 612 L 1455 609 L 1450 608 L 1443 609 L 1442 608 L 1439 596 L 1441 594 L 1444 594 L 1444 591 L 1436 588 L 1435 565 L 1430 561 L 1431 555 L 1426 553 L 1428 542 L 1423 534 L 1414 534 L 1404 516 L 1407 512 L 1414 511 L 1413 503 L 1406 498 L 1404 491 L 1400 492 L 1396 499 L 1392 496 L 1379 476 L 1382 469 L 1381 465 L 1372 461 L 1369 452 L 1363 448 L 1361 440 L 1354 444 L 1346 435 L 1349 426 L 1343 420 Z M 627 342 L 708 423 L 709 426 L 677 463 L 656 493 L 638 524 L 621 560 L 606 602 L 598 633 L 594 659 L 593 660 L 592 673 L 591 674 L 588 718 L 587 719 L 471 719 L 470 718 L 471 682 L 472 681 L 473 662 L 474 661 L 474 654 L 475 653 L 478 628 L 484 603 L 484 599 L 491 576 L 492 569 L 510 518 L 534 467 L 555 431 L 574 403 L 590 382 L 613 355 Z M 1032 309 L 1034 308 L 1035 309 L 1066 310 L 1067 311 L 1082 312 L 1083 313 L 1106 316 L 1139 324 L 1187 341 L 1224 359 L 1264 384 L 1279 395 L 1287 404 L 1291 405 L 1300 413 L 1300 418 L 1307 419 L 1313 426 L 1220 518 L 1201 501 L 1177 484 L 1158 473 L 1135 462 L 1107 452 L 1084 446 L 1061 443 L 1060 442 L 1039 441 L 1032 439 Z M 1015 309 L 1015 439 L 1008 441 L 996 441 L 995 442 L 987 442 L 986 443 L 963 446 L 940 452 L 912 462 L 891 472 L 870 484 L 846 501 L 827 518 L 734 426 L 744 415 L 776 389 L 801 372 L 823 359 L 865 339 L 886 332 L 889 330 L 892 330 L 905 325 L 932 318 L 958 314 L 959 313 L 980 311 L 981 310 L 1012 309 L 1013 308 Z M 1525 237 L 1546 258 L 1570 286 L 1590 312 L 1618 353 L 1642 394 L 1661 432 L 1661 434 L 1675 464 L 1697 527 L 1706 560 L 1706 564 L 1714 597 L 1718 627 L 1719 628 L 1719 634 L 1720 635 L 1722 661 L 1723 662 L 1723 673 L 1724 674 L 1724 689 L 1725 690 L 1725 718 L 1724 719 L 1595 719 L 1594 718 L 1593 688 L 1592 687 L 1592 676 L 1591 675 L 1589 650 L 1588 649 L 1585 624 L 1578 595 L 1578 591 L 1570 562 L 1560 532 L 1544 494 L 1545 488 L 1548 484 L 1556 483 L 1557 481 L 1556 470 L 1546 459 L 1545 454 L 1536 444 L 1535 440 L 1527 432 L 1527 428 L 1525 424 L 1511 409 L 1510 404 L 1509 403 L 1502 403 L 1485 383 L 1484 375 L 1479 373 L 1479 366 L 1475 363 L 1467 362 L 1450 344 L 1449 337 L 1441 335 L 1442 321 L 1444 318 Z M 522 237 L 614 330 L 596 349 L 572 378 L 541 422 L 519 460 L 493 516 L 477 562 L 469 591 L 469 595 L 462 624 L 458 656 L 457 657 L 456 675 L 455 676 L 453 718 L 452 719 L 323 719 L 322 718 L 323 673 L 324 672 L 324 662 L 325 661 L 327 635 L 328 634 L 328 628 L 329 627 L 333 597 L 340 568 L 340 564 L 350 527 L 372 464 L 386 434 L 386 432 L 405 394 L 429 353 L 457 312 L 477 286 L 512 246 Z M 1032 174 L 1033 173 L 1060 174 L 1061 175 L 1091 177 L 1092 178 L 1119 181 L 1144 186 L 1149 188 L 1153 188 L 1186 197 L 1210 205 L 1252 222 L 1268 230 L 1269 232 L 1266 236 L 1264 236 L 1263 243 L 1270 245 L 1276 245 L 1278 248 L 1279 253 L 1285 255 L 1290 260 L 1293 267 L 1293 274 L 1297 276 L 1296 291 L 1306 297 L 1309 301 L 1308 314 L 1304 320 L 1310 325 L 1310 328 L 1313 331 L 1315 350 L 1324 351 L 1329 345 L 1333 343 L 1348 342 L 1353 345 L 1362 354 L 1370 369 L 1334 405 L 1333 404 L 1328 404 L 1326 397 L 1327 389 L 1331 386 L 1334 385 L 1336 386 L 1326 371 L 1311 355 L 1309 354 L 1301 355 L 1292 351 L 1289 348 L 1287 340 L 1282 333 L 1264 316 L 1257 312 L 1252 313 L 1250 320 L 1252 322 L 1258 321 L 1271 333 L 1273 337 L 1272 340 L 1264 346 L 1269 352 L 1276 352 L 1277 353 L 1278 364 L 1283 367 L 1289 373 L 1291 378 L 1290 383 L 1273 370 L 1238 348 L 1238 342 L 1241 339 L 1245 339 L 1248 342 L 1255 342 L 1256 335 L 1248 328 L 1240 328 L 1236 332 L 1229 329 L 1226 329 L 1224 333 L 1225 336 L 1224 341 L 1189 324 L 1184 323 L 1168 316 L 1139 307 L 1099 298 L 1080 296 L 1079 295 L 1033 292 L 1032 291 L 1032 228 L 1039 226 L 1041 221 L 1048 218 L 1048 216 L 1044 211 L 1037 211 L 1032 207 Z M 1015 174 L 1015 291 L 1014 292 L 968 295 L 967 296 L 961 296 L 960 297 L 928 302 L 894 311 L 891 313 L 882 315 L 851 327 L 816 344 L 792 358 L 750 388 L 722 413 L 638 330 L 652 316 L 683 290 L 730 257 L 761 239 L 816 213 L 868 195 L 875 194 L 890 189 L 894 189 L 903 186 L 928 181 L 955 178 L 956 177 L 964 177 L 965 176 L 986 175 L 987 174 L 1007 174 L 1008 173 L 1014 173 Z M 1032 26 L 1033 25 L 1044 25 L 1045 26 L 1081 27 L 1082 28 L 1102 29 L 1103 30 L 1118 31 L 1119 32 L 1150 36 L 1170 41 L 1179 42 L 1184 44 L 1188 44 L 1225 54 L 1290 77 L 1344 102 L 1346 104 L 1370 116 L 1409 140 L 1435 158 L 1465 181 L 1492 204 L 1514 225 L 1432 306 L 1427 303 L 1428 300 L 1431 297 L 1431 291 L 1428 288 L 1416 288 L 1413 285 L 1411 277 L 1410 262 L 1407 261 L 1404 258 L 1404 256 L 1399 256 L 1398 257 L 1396 256 L 1396 248 L 1387 244 L 1387 236 L 1371 235 L 1360 219 L 1343 218 L 1337 213 L 1325 210 L 1322 213 L 1309 214 L 1307 219 L 1284 220 L 1261 208 L 1225 193 L 1193 182 L 1165 175 L 1161 173 L 1157 173 L 1152 171 L 1148 171 L 1123 165 L 1097 162 L 1096 161 L 1068 159 L 1067 158 L 1033 157 L 1032 156 Z M 1015 26 L 1015 156 L 1014 157 L 969 159 L 968 160 L 960 160 L 959 161 L 951 161 L 950 162 L 930 164 L 904 169 L 854 182 L 802 201 L 752 225 L 718 245 L 694 261 L 670 279 L 646 299 L 626 318 L 533 225 L 555 204 L 582 181 L 612 158 L 638 140 L 672 119 L 703 102 L 757 77 L 822 54 L 855 45 L 859 45 L 868 42 L 877 41 L 897 36 L 936 31 L 937 30 L 944 30 L 945 29 L 965 28 L 966 27 L 1002 26 L 1003 25 L 1014 25 Z"/>
</svg>
